<svg xmlns="http://www.w3.org/2000/svg" width="1200" height="800" viewBox="0 0 1200 800">
  <rect width="1200" height="800" fill="#F3F4F6" rx="8"/>
  <rect x="0" y="0" width="200" height="800" fill="#E5E7EB" rx="8"/>
  <rect x="16" y="20" width="168" height="36" fill="#D1D5DB" rx="6"/>
  <rect x="232" y="20" width="936" height="36" fill="#E5E7EB" rx="18"/>
  <rect x="248" y="30" width="120" height="16" fill="#D1D5DB" rx="3"/>
  <rect x="232" y="80" width="280" height="280" fill="#FEF3C7" rx="8"/>
  <rect x="248" y="96" width="200" height="14" fill="#F59E0B" rx="3"/>
  <rect x="248" y="120" width="240" height="10" fill="#D1D5DB" rx="2"/>
  <rect x="248" y="138" width="180" height="10" fill="#D1D5DB" rx="2"/>
  <rect x="536" y="80" width="280" height="280" fill="#DBEAFE" rx="8"/>
  <rect x="552" y="96" width="180" height="14" fill="#3B82F6" rx="3"/>
  <rect x="552" y="120" width="240" height="10" fill="#D1D5DB" rx="2"/>
  <rect x="552" y="138" width="200" height="10" fill="#D1D5DB" rx="2"/>
  <rect x="840" y="80" width="280" height="280" fill="#DCFCE7" rx="8"/>
  <rect x="856" y="96" width="160" height="14" fill="#22C55E" rx="3"/>
  <rect x="856" y="120" width="240" height="10" fill="#D1D5DB" rx="2"/>
  <rect x="856" y="138" width="190" height="10" fill="#D1D5DB" rx="2"/>
  <rect x="232" y="384" width="280" height="280" fill="#F3E8FF" rx="8"/>
  <rect x="536" y="384" width="280" height="280" fill="#FFE4E6" rx="8"/>
  <rect x="840" y="384" width="280" height="280" fill="#E0F2FE" rx="8"/>
  <text x="700" y="750" font-family="system-ui,sans-serif" font-size="16" fill="#9CA3AF" text-anchor="middle">Board View</text>
</svg>
