<svg xmlns="http://www.w3.org/2000/svg" width="1200" height="800" viewBox="0 0 1200 800">
  <rect width="1200" height="800" fill="#F3F4F6" rx="8"/>
  <rect x="0" y="0" width="200" height="800" fill="#E5E7EB" rx="8"/>
  <rect x="16" y="20" width="168" height="36" fill="#D1D5DB" rx="6"/>
  <rect x="232" y="20" width="600" height="44" fill="#E5E7EB" rx="22"/>
  <rect x="260" y="34" width="16" height="16" fill="#D1D5DB" rx="8"/>
  <rect x="288" y="36" width="200" height="12" fill="#D1D5DB" rx="3"/>
  <rect x="232" y="88" width="936" height="80" fill="white" stroke="#E5E7EB" stroke-width="1" rx="8"/>
  <rect x="256" y="104" width="300" height="14" fill="#1F2937" rx="3"/>
  <rect x="256" y="126" width="500" height="10" fill="#D1D5DB" rx="2"/>
  <rect x="256" y="144" width="400" height="10" fill="#D1D5DB" rx="2"/>
  <rect x="232" y="184" width="936" height="80" fill="white" stroke="#E5E7EB" stroke-width="1" rx="8"/>
  <rect x="256" y="200" width="280" height="14" fill="#1F2937" rx="3"/>
  <rect x="256" y="222" width="480" height="10" fill="#D1D5DB" rx="2"/>
  <rect x="256" y="240" width="350" height="10" fill="#D1D5DB" rx="2"/>
  <rect x="232" y="280" width="936" height="80" fill="white" stroke="#E5E7EB" stroke-width="1" rx="8"/>
  <rect x="256" y="296" width="320" height="14" fill="#1F2937" rx="3"/>
  <rect x="256" y="318" width="520" height="10" fill="#D1D5DB" rx="2"/>
  <rect x="256" y="336" width="380" height="10" fill="#D1D5DB" rx="2"/>
  <text x="700" y="750" font-family="system-ui,sans-serif" font-size="16" fill="#9CA3AF" text-anchor="middle">Search Results</text>
</svg>
