<svg xmlns="http://www.w3.org/2000/svg" width="1200" height="800" viewBox="0 0 1200 800">
  <rect width="1200" height="800" fill="#F3F4F6" rx="8"/>
  <circle cx="600" cy="350" r="40" fill="#DBEAFE" stroke="#3B82F6" stroke-width="2"/>
  <text x="600" y="355" font-family="system-ui,sans-serif" font-size="11" fill="#1E40AF" text-anchor="middle">Strategy</text>
  <circle cx="380" cy="250" r="30" fill="#F3E8FF" stroke="#8B5CF6" stroke-width="2"/>
  <text x="380" y="255" font-family="system-ui,sans-serif" font-size="10" fill="#6D28D9" text-anchor="middle">Design</text>
  <circle cx="820" cy="250" r="30" fill="#FEF3C7" stroke="#F59E0B" stroke-width="2"/>
  <text x="820" y="255" font-family="system-ui,sans-serif" font-size="10" fill="#B45309" text-anchor="middle">Eng</text>
  <circle cx="450" cy="500" r="25" fill="#DCFCE7" stroke="#22C55E" stroke-width="2"/>
  <text x="450" y="505" font-family="system-ui,sans-serif" font-size="9" fill="#15803D" text-anchor="middle">API</text>
  <circle cx="750" cy="500" r="25" fill="#FFE4E6" stroke="#F43F5E" stroke-width="2"/>
  <text x="750" y="505" font-family="system-ui,sans-serif" font-size="9" fill="#BE123C" text-anchor="middle">Data</text>
  <circle cx="300" cy="450" r="22" fill="#E0F2FE" stroke="#38BDF8" stroke-width="2"/>
  <text x="300" y="455" font-family="system-ui,sans-serif" font-size="9" fill="#0369A1" text-anchor="middle">UX</text>
  <circle cx="900" cy="420" r="22" fill="#FEF3C7" stroke="#F59E0B" stroke-width="2"/>
  <text x="900" y="425" font-family="system-ui,sans-serif" font-size="9" fill="#B45309" text-anchor="middle">Ops</text>
  <line x1="600" y1="350" x2="380" y2="250" stroke="#D1D5DB" stroke-width="1.5"/>
  <line x1="600" y1="350" x2="820" y2="250" stroke="#D1D5DB" stroke-width="1.5"/>
  <line x1="600" y1="350" x2="450" y2="500" stroke="#D1D5DB" stroke-width="1.5"/>
  <line x1="600" y1="350" x2="750" y2="500" stroke="#D1D5DB" stroke-width="1.5"/>
  <line x1="380" y1="250" x2="300" y2="450" stroke="#D1D5DB" stroke-width="1"/>
  <line x1="820" y1="250" x2="900" y2="420" stroke="#D1D5DB" stroke-width="1"/>
  <line x1="450" y1="500" x2="300" y2="450" stroke="#D1D5DB" stroke-width="1"/>
  <line x1="750" y1="500" x2="900" y2="420" stroke="#D1D5DB" stroke-width="1"/>
  <text x="600" y="750" font-family="system-ui,sans-serif" font-size="16" fill="#9CA3AF" text-anchor="middle">Memory Graph</text>
</svg>
